<?xml version="1.0" encoding="UTF-8" standalone="no"?>
<!DOCTYPE svg PUBLIC "-//W3C//DTD SVG 1.1//EN" "http://www.w3.org/Graphics/SVG/1.1/DTD/svg11.dtd">
<svg width="100%" height="100%" viewBox="0 0 597 497" version="1.1" xmlns="http://www.w3.org/2000/svg" xmlns:xlink="http://www.w3.org/1999/xlink" xml:space="preserve" xmlns:serif="http://www.serif.com/" style="fill-rule:evenodd;clip-rule:evenodd;stroke-linejoin:round;stroke-miterlimit:2;">
    <g id="map_france" transform="matrix(1,0,0,1,95.802,-103.857)">
        <g id="ara" transform="matrix(0.753746,0,0,0.753746,-19.818,29.5251)">
            <path d="M335.998,560.289C331.736,557.83 327.986,555.818 327.665,555.818C327.344,555.817 326.998,555.564 326.895,555.256C326.768,554.874 325.044,554.754 321.478,554.879C308.272,555.342 307.822,555.266 305.901,552.261L305.066,550.955L299.657,551.89C296.301,552.469 292.453,552.775 289.518,552.695L284.787,552.566L284.434,551.066C284.047,549.417 279.606,534.074 277.943,528.637C277.366,526.751 276.464,524.235 275.938,523.046C275.036,521.007 274.817,520.849 272.115,520.281C270.538,519.95 266.951,519.719 264.143,519.767L259.038,519.856L258.234,516.961C257.792,515.369 257.343,513.793 257.237,513.46C257.108,513.055 255.731,513.52 253.076,514.867L249.108,516.881L247.333,520.764C246.357,522.9 245.183,525.585 244.724,526.732L243.89,528.816L235.748,528.788L232.536,521.79C230.769,517.941 229.158,514.967 228.956,515.18C228.753,515.393 226.899,518.605 224.835,522.318L221.083,529.068L218.8,529.525C216.247,530.036 207.408,529.119 205.481,528.144C203.89,527.338 202.398,522.896 202.137,518.188C201.909,514.072 201.925,514.031 205.741,509.46C206.905,508.065 207.397,507.425 209.498,504.568C211.86,501.356 212.372,500.7 213.417,499.542C214.102,498.783 217.155,494.744 218.498,492.819C218.911,492.228 219.986,490.917 220.887,489.906C223.012,487.521 223.182,486.724 222.853,480.65C222.701,477.855 222.809,469.83 223.091,462.818L223.604,450.068L221.749,443.318C220.729,439.605 219.586,435.33 219.21,433.818C218.834,432.305 218.071,429.605 217.516,427.818C216.932,425.94 216.504,423.162 216.502,421.239L216.498,417.911L221.373,417.58C224.054,417.398 226.503,417.169 226.814,417.072C227.126,416.974 227.755,415.133 228.212,412.981C228.669,410.829 229.324,408.28 229.666,407.318L230.289,405.568L247.269,405.418C256.607,405.336 265.394,405.404 266.794,405.57C269.328,405.868 269.346,405.883 270.761,408.844C271.542,410.479 272.338,411.818 272.528,411.818C272.719,411.818 273.338,412.886 273.905,414.193C275.419,417.685 276.117,418.413 278.289,418.764L280.248,419.081L280.399,421.988C280.482,423.587 280.089,427.159 279.524,429.926C278.96,432.693 278.498,435.142 278.498,435.369C278.498,435.595 280.673,436.845 283.332,438.147C287.985,440.426 288.41,440.535 294.707,441.06L301.248,441.606L303.248,440.091C304.348,439.257 305.323,438.405 305.415,438.196C305.506,437.988 307.457,437.818 309.749,437.818C313.224,437.818 314.34,438.031 316.466,439.099C318.035,439.887 319.633,440.32 320.618,440.224C322.107,440.079 322.349,439.772 324.086,435.818C325.114,433.48 326.889,429.599 328.032,427.193L330.109,422.818L335.573,422.818L339.076,426.443C341.002,428.437 343.516,431.154 344.663,432.482L346.748,434.895L358.248,434.544C365.602,434.32 370.405,434.376 371.571,434.701C373.162,435.144 373.672,435.044 375.571,433.916C376.768,433.205 378.045,432.329 378.409,431.97C378.772,431.611 379.276,431.318 379.528,431.318C379.796,431.318 379.856,429.469 379.672,426.882L379.357,422.446L382.553,421.441C384.31,420.889 387.098,420.076 388.748,419.635C390.398,419.194 392.97,418.492 394.464,418.075C395.958,417.659 398.67,417.318 400.492,417.318C404.209,417.318 404.581,417.518 410.23,422.571C413.39,425.397 413.498,425.572 413.498,427.882C413.498,430.147 412.702,432.818 412.026,432.818C411.854,432.818 411.328,433.471 410.856,434.27C410.006,435.709 410.013,435.741 411.689,437.747C412.619,438.86 413.688,440.112 414.064,440.527C414.84,441.385 415.089,441.697 417.483,444.818C418.432,446.055 419.837,447.729 420.604,448.538C421.77,449.767 421.998,450.442 421.998,452.663C421.998,454.123 421.789,455.318 421.534,455.318C421.278,455.318 420.772,455.607 420.409,455.96C420.045,456.313 418.623,457.249 417.248,458.041C415.873,458.833 414.636,459.639 414.498,459.832C414.361,460.025 413.742,460.341 413.123,460.534C412.079,460.86 411.492,462.318 412.406,462.318C412.629,462.318 413.194,463.117 413.66,464.093C414.125,465.07 414.735,466.138 415.015,466.468C415.544,467.092 421.437,476.173 423.436,479.446C424.436,481.083 424.546,481.756 424.294,484.696C424.135,486.55 423.868,490.051 423.701,492.474C423.422,496.512 423.297,496.919 422.215,497.33C421.102,497.753 413.027,499.547 405.248,501.099C402.683,501.611 401.454,502.134 400.647,503.058C399.668,504.178 399.169,504.315 396.147,504.296C394.278,504.285 391.736,504.057 390.498,503.792C389.261,503.527 387.517,503.17 386.623,502.998L384.998,502.687L384.998,504.992C384.998,506.967 385.355,507.786 387.498,510.723C389.648,513.67 389.998,514.475 389.998,516.474C389.998,519.201 390.505,518.981 381.748,520.049C372.275,521.205 370.765,521.446 370.495,521.852C370.206,522.287 358.745,534.376 354.248,538.99C349.587,543.772 349.756,543.378 351.185,546.153C351.919,547.578 354.083,550.092 356.463,552.286L360.498,556.005L360.498,561.214L355.848,563.016C351.946,564.528 350.6,564.813 347.473,564.789L343.748,564.76L335.998,560.289Z" style="fill-rule:nonzero;"/>
        </g>
        <g id="bfc" transform="matrix(0.753746,0,0,0.753746,-19.818,29.5251)">
            <path d="M291.998,435.837C288.836,435.368 285.517,434.816 284.623,434.611L282.998,434.237L282.998,430.805C282.998,428.321 283.369,426.365 284.342,423.72C285.081,421.71 285.868,419.991 286.092,419.899C286.315,419.808 286.498,419.2 286.498,418.548C286.498,417.634 286.011,417.148 284.373,416.424C283.205,415.908 281.573,415.316 280.748,415.11C278.751,414.611 277.937,413.643 276.509,410.066C275.85,408.416 275.168,406.954 274.994,406.816C274.82,406.679 274.326,405.666 273.896,404.566L273.114,402.566L269.931,402.432C265.587,402.249 250.396,400.88 250.167,400.651C249.827,400.312 245.502,347.12 245.505,343.316C245.507,339.828 245.603,339.49 246.878,338.476C247.632,337.876 249.104,336.597 250.151,335.633C251.197,334.67 252.313,333.794 252.631,333.688C253.061,333.545 252.976,331.255 252.3,324.781C251.8,319.988 251.471,314.941 251.569,313.566C251.743,311.142 251.809,311.046 253.748,310.414C254.848,310.056 255.921,309.59 256.132,309.38C256.343,309.17 256.768,307.551 257.077,305.782C257.385,304.013 257.887,302.401 258.193,302.199C259.093,301.604 267.963,301.763 269.156,302.395C270.427,303.069 271.449,304.033 284.601,316.963C293.229,325.445 294.628,326.629 295.851,326.487C296.62,326.398 302.708,325.856 309.381,325.284C323.514,324.072 323.768,324.111 326.748,327.897C327.848,329.294 329.086,330.842 329.498,331.336C329.911,331.83 330.698,332.86 331.248,333.624C332.633,335.548 336.762,340.849 337.85,342.098C338.344,342.665 338.973,343.48 339.248,343.909C339.523,344.337 340.536,345.735 341.498,347.014C343.103,349.147 343.394,349.321 344.998,349.108C353.096,348.033 355.082,347.615 356.111,346.769C356.737,346.255 357.484,345.639 357.771,345.401C358.059,345.163 358.509,344.877 358.771,344.767C360.171,344.178 362.987,341.987 362.992,341.483C362.995,341.162 363.167,340.824 363.373,340.733C363.921,340.489 365.998,337.439 365.998,336.878C365.998,336.615 366.186,336.324 366.414,336.233C366.643,336.141 367.81,334.378 369.007,332.316C370.204,330.253 371.48,328.269 371.841,327.905C372.203,327.542 372.498,327.06 372.498,326.834C372.498,326.608 372.892,326.26 373.373,326.061C374.575,325.565 387.459,324.36 391.748,324.344C395.215,324.329 395.274,324.352 397.953,326.698C399.44,328 401.601,329.966 402.755,331.066C403.908,332.166 406.788,334.836 409.155,337C413.869,341.311 413.888,341.348 416.052,350.316C416.703,353.013 417.209,356.706 417.223,358.86C417.249,362.914 417.232,362.949 412.648,368.159C412.119,368.761 411.25,369.852 410.717,370.584C410.184,371.316 409.186,372.559 408.498,373.347C407.811,374.136 406.739,375.407 406.116,376.173C405.494,376.939 404.558,378.083 404.037,378.715C403.516,379.347 402.337,380.799 401.419,381.94C400.5,383.082 399.166,384.703 398.455,385.541C397.744,386.38 396.619,387.715 395.955,388.507C395.291,389.3 394.467,390.24 394.123,390.597C393.78,390.953 393.498,391.486 393.498,391.78C393.498,392.075 393.301,392.316 393.059,392.316C392.817,392.316 392.324,393.047 391.962,393.941C391.601,394.835 391.155,395.678 390.971,395.816C390.787,395.953 388.789,399.216 386.532,403.066C384.275,406.916 382.162,410.516 381.838,411.066C381.514,411.616 381.136,412.178 380.998,412.316C380.861,412.453 380.356,413.353 379.876,414.316C378.969,416.137 377.929,417.886 377.498,418.316C377.359,418.453 376.91,419.241 376.497,420.066C376.085,420.891 375.467,421.863 375.123,422.227C374.78,422.59 374.498,423.209 374.498,423.602C374.498,423.995 374.288,424.316 374.031,424.316C373.774,424.316 373.285,425.085 372.945,426.025C372.605,426.964 371.78,427.983 371.111,428.287C370.009,428.79 353.599,430.816 350.633,430.816C349.704,430.816 347.73,429.113 342.697,423.968C339.013,420.202 335.998,416.939 335.998,416.718C335.998,416.497 334.592,416.317 332.873,416.318L329.748,416.32L328.041,420.693C327.102,423.098 326.2,425.179 326.036,425.316C325.872,425.454 324.971,427.479 324.034,429.816C321.922,435.087 321.745,435.316 319.785,435.316C318.624,435.316 317.737,434.844 316.498,433.566C314.842,431.857 314.71,431.816 310.853,431.816C307.325,431.816 306.877,431.923 306.643,432.816C306.499,433.366 306.183,433.816 305.94,433.816C305.697,433.816 305.498,434.138 305.498,434.53C305.498,436.997 302.067,437.329 291.998,435.837L291.998,435.837Z" style="fill-rule:nonzero;"/>
        </g>
        <g id="bretagne" transform="matrix(0.753746,0,0,0.753746,-19.818,29.5251)">
            <path d="M4.896,341.105C2.698,338.785 1.118,336.926 0.934,336.442C0.688,335.797 -1.961,332.459 -3.377,331.012C-3.995,330.379 -4.502,329.661 -4.502,329.415C-4.502,328.989 -5.055,328.279 -7.791,325.191C-8.461,324.435 -9.345,323.816 -9.756,323.816C-10.166,323.816 -10.502,323.638 -10.502,323.42C-10.502,323.203 -11.233,322.679 -12.127,322.257C-13.02,321.834 -15.552,320.521 -17.752,319.337C-19.952,318.153 -23.327,316.371 -25.252,315.375C-27.177,314.38 -28.864,313.441 -29.002,313.288C-29.139,313.135 -30.039,312.697 -31.002,312.316C-31.964,311.935 -32.864,311.48 -33.002,311.305C-33.139,311.131 -33.927,310.646 -34.752,310.229C-35.577,309.812 -38.052,308.506 -40.252,307.328C-42.452,306.149 -45.827,304.371 -47.752,303.375C-49.677,302.38 -51.364,301.441 -51.502,301.288C-51.639,301.135 -52.539,300.697 -53.502,300.316C-54.464,299.935 -55.364,299.481 -55.502,299.307C-55.639,299.133 -58.452,297.625 -61.752,295.956C-71.82,290.862 -75.241,289.079 -75.502,288.788C-75.639,288.635 -76.539,288.194 -77.502,287.809C-80.4,286.649 -80.63,286.192 -80.419,282.023C-80.315,279.957 -79.987,278.109 -79.691,277.916C-79.394,277.724 -78.52,276.559 -77.748,275.327C-76.977,274.096 -76.043,272.786 -75.674,272.417C-75.304,272.047 -75.002,271.423 -75.002,271.03C-75.002,270.638 -74.803,270.316 -74.559,270.316C-74.114,270.316 -75.925,264.783 -76.522,264.316C-77.351,263.669 -78.502,258.814 -78.502,255.965C-78.502,253.124 -78.383,252.746 -77.365,252.359C-76.228,251.927 -71.654,251.545 -47.252,249.847C-35.419,249.024 -33.825,248.803 -29.502,247.388C-12.042,241.672 -10.752,241.316 -7.501,241.324C-5.714,241.328 -4.013,241.497 -3.721,241.699C-3.005,242.195 0.498,248.054 0.498,248.757C0.498,249.064 0.708,249.316 0.965,249.316C1.221,249.316 1.589,249.822 1.782,250.441C1.975,251.06 2.271,251.679 2.441,251.816C2.61,251.954 3.311,253.15 3.998,254.474C4.686,255.799 5.586,257.268 5.998,257.739C6.411,258.21 7.311,259.683 7.998,261.01C8.686,262.338 9.492,263.523 9.789,263.642C10.087,263.761 12.899,263.382 16.039,262.8C29.476,260.308 34.884,259.285 36.998,258.837C41.781,257.823 48.837,258.381 49.998,259.865C50.136,260.041 51.486,260.935 52.998,261.851C54.511,262.767 55.861,263.64 55.998,263.791C56.447,264.285 58.229,265.339 59.123,265.639C59.605,265.801 59.998,266.132 59.998,266.374C59.998,266.617 60.336,266.816 60.748,266.816C61.161,266.816 61.498,267.026 61.498,267.282C61.498,267.539 61.994,267.906 62.6,268.098C63.206,268.291 64.009,268.756 64.386,269.132C64.762,269.508 65.373,269.816 65.744,269.816C66.115,269.816 66.553,270.435 66.717,271.191C67.79,276.15 71.168,301.009 71.366,305.41C71.596,310.517 71.555,310.805 70.428,311.926C69.779,312.571 68.461,313.416 67.498,313.804C66.536,314.192 65.636,314.637 65.498,314.793C65.264,315.059 63.096,316.178 47.748,323.952C44.448,325.624 41.636,327.133 41.498,327.307C41.361,327.481 40.461,327.935 39.498,328.316C38.536,328.697 37.636,329.137 37.498,329.293C37.361,329.45 34.661,330.891 31.498,332.495C28.336,334.1 23.048,336.782 19.748,338.455C16.448,340.127 13.673,341.681 13.582,341.906C13.49,342.132 11.756,342.316 9.729,342.316C6.479,342.316 5.908,342.173 4.896,341.105Z" style="fill-rule:nonzero;"/>
        </g>
        <g id="centre-val-de-loire" transform="matrix(0.753746,0,0,0.753746,-19.818,29.5251)">
            <path d="M213.998,414.468C213.036,414.365 204.148,413.399 194.248,412.322C184.348,411.245 174.725,410.214 172.863,410.031C170.116,409.76 169.196,409.435 167.988,408.306C167.168,407.541 166.498,406.771 166.498,406.595C166.498,406.301 164.574,403.392 163.998,402.816C163.337,402.155 161.498,399.309 161.498,398.947C161.498,398.721 161.048,398.213 160.498,397.816C159.948,397.42 159.498,396.899 159.498,396.66C159.498,396.42 159.105,395.708 158.623,395.078C158.142,394.448 157.411,393.43 156.998,392.818C156.318,391.807 154.107,388.818 153.113,387.566C152.895,387.291 152.169,386.166 151.499,385.066C149.829,382.323 148.701,381.245 145.498,379.33C143.986,378.425 142.636,377.527 142.498,377.334C142.361,377.141 140.673,376.034 138.748,374.874C133.426,371.666 133.339,371.61 132.609,370.941C132.234,370.597 131.605,370.316 131.213,370.316C130.82,370.316 130.498,370.095 130.498,369.826C130.498,369.556 129.936,369.194 129.248,369.021C128.561,368.849 127.998,368.558 127.998,368.376C127.998,368.193 127.211,367.619 126.248,367.101C124.509,366.164 124.498,366.138 124.498,362.715C124.498,359.826 124.68,359.08 125.623,358.09C126.242,357.441 127.156,356.382 127.655,355.738C129.13,353.832 131.185,351.277 132.123,350.183C132.605,349.622 132.998,348.973 132.998,348.74C132.998,348.507 133.32,348.316 133.713,348.316C134.105,348.316 134.727,348.035 135.093,347.691C135.46,347.347 137.782,346.018 140.254,344.736C150.819,339.258 149.591,340.17 150.483,337.137C150.818,335.998 151.602,333.604 152.225,331.816C152.848,330.029 154.31,325.529 155.473,321.816C156.636,318.104 157.913,314.166 158.309,313.066C158.706,311.966 159.359,308.029 159.761,304.316C160.163,300.604 160.711,295.766 160.979,293.566C161.247,291.366 161.742,286.713 162.078,283.226L162.69,276.887L164.969,276.312C171.689,274.616 182.061,272.821 184.951,272.853L188.248,272.89L191.248,278.913C192.898,282.226 194.473,285.191 194.748,285.503C195.023,285.814 195.922,287.418 196.746,289.068C197.569,290.717 198.403,292.186 198.599,292.332C198.795,292.479 199.247,293.266 199.604,294.082C199.961,294.898 201.339,297.535 202.666,299.941L205.079,304.316L209.414,303.941C211.798,303.735 215.34,303.566 217.285,303.566C221.106,303.566 221.157,303.595 223.731,307.066C227.193,311.738 227.134,311.707 233.748,312.288C243.753,313.166 244.998,313.369 244.998,314.124C244.998,314.505 245.202,314.816 245.451,314.816C245.701,314.816 246.049,315.997 246.226,317.441C246.403,318.885 246.863,322.091 247.248,324.566C247.633,327.041 248.098,330.358 248.28,331.937L248.613,334.809L244.055,336.925C238.781,339.375 239.135,338.374 240.016,348.316C240.731,356.374 242.386,375.88 243.261,386.555C243.667,391.498 243.998,396.929 243.998,398.623L243.998,401.703L241.873,401.994C240.705,402.155 236.56,402.436 232.664,402.619C224.632,402.997 225.018,402.745 225.005,407.621C225.001,409.027 224.855,411.221 224.68,412.496L224.362,414.816L220.055,414.736C217.686,414.692 214.961,414.572 213.998,414.468L213.998,414.468Z" style="fill-rule:nonzero;"/>
        </g>
        <g id="corse" transform="matrix(0.753746,0,0,0.753746,-19.818,29.5251)">
            <path d="M442.027,731.453C441.63,731.296 440.803,730.695 440.189,730.117C439.575,729.539 438.255,728.504 437.256,727.816C436.256,727.129 435.171,726.333 434.843,726.048C434.516,725.763 433.405,724.893 432.373,724.114C430.576,722.756 430.498,722.575 430.498,719.724C430.498,718.089 430.732,716.314 431.017,715.781C431.454,714.964 431.316,714.715 430.142,714.199C429.375,713.862 428.636,713.457 428.498,713.298C428.361,713.139 427.525,712.717 426.64,712.359C424.618,711.541 424.353,710.68 424.572,705.642L424.748,701.581L422.764,700.573C421.673,700.019 420.492,699.301 420.139,698.977C419.228,698.139 419.341,693.643 420.345,690.817L421.192,688.433L419.095,685.215C417.249,682.382 416.998,681.652 416.998,679.123C416.998,677.543 417.241,675.798 417.537,675.244C417.943,674.486 417.881,673.752 417.287,672.267C416.336,669.891 416.232,664.022 417.123,663.093C417.467,662.735 418.986,661.056 420.498,659.361C422.011,657.666 424.092,655.37 425.123,654.257C426.155,653.145 426.998,652.06 426.998,651.847C426.998,651.634 428.405,651.095 430.123,650.648C431.842,650.202 434.823,649.381 436.748,648.824C438.673,648.267 441.261,647.54 442.498,647.21C443.736,646.879 444.81,646.574 444.886,646.533C444.962,646.491 445.792,643.444 446.729,639.761C447.667,636.079 448.73,632.166 449.092,631.066L449.749,629.066L452.999,628.937C454.786,628.866 456.499,628.979 456.806,629.187C457.112,629.396 458.181,631.433 459.181,633.715C461.182,638.283 461.455,641.268 460.487,647.964C460.076,650.806 460.13,651.623 460.817,652.964C461.268,653.845 461.777,654.679 461.948,654.816C462.118,654.954 462.918,656.079 463.726,657.316C465.136,659.476 465.209,659.876 465.557,667.316C466.232,681.723 466.104,688.535 465.123,690.4C464.642,691.316 464.126,692.178 463.976,692.316C463.826,692.453 463.237,693.373 462.666,694.359C461.846,695.777 461.56,697.399 461.303,702.109C461.125,705.386 460.843,710.156 460.678,712.71L460.377,717.353L457.562,721.043C456.015,723.073 454.411,725.223 453.998,725.821C453.586,726.42 452.911,727.326 452.498,727.835C452.086,728.344 451.217,729.448 450.567,730.288C449.453,731.729 449.197,731.814 446.067,731.777C444.242,731.754 442.424,731.609 442.027,731.453L442.027,731.453Z" style="fill-rule:nonzero;"/>
        </g>
        <g id="grand-est" transform="matrix(0.753746,0,0,0.753746,-19.818,29.5251)">
            <path d="M425.556,352.813C421.726,352.539 419.728,352.188 419.452,351.741C419.225,351.374 417.878,347.871 416.458,343.956C413.813,336.662 413.493,336.161 409.012,332.316C407.89,331.354 405.859,329.554 404.498,328.316C403.137,327.079 401.175,325.333 400.136,324.438C399.098,323.542 397.493,322.136 396.57,321.313C394.595,319.551 394.602,319.551 380.769,320.395C372.143,320.921 371.202,321.068 370.406,322.02C369.925,322.595 369.524,323.347 369.515,323.691C369.506,324.035 369.278,324.316 369.008,324.316C368.738,324.316 368.376,324.879 368.204,325.566C368.031,326.254 367.725,326.816 367.524,326.816C367.323,326.816 366.919,327.322 366.626,327.941C366.332,328.56 365.727,329.516 365.28,330.066C364.073,331.55 360.998,336.351 360.998,336.749C360.998,337.279 359.687,338.07 354.276,340.804C350.296,342.815 348.808,343.316 346.822,343.316L344.341,343.316L337.045,335.828C328.431,326.988 328.973,327.609 326.918,324.239C326.021,322.769 325.11,321.491 324.893,321.4C324.676,321.308 324.498,320.911 324.498,320.519C324.498,319.981 324.035,319.868 322.623,320.061C316.718,320.87 301.582,322.316 299.023,322.316C296.193,322.316 295.895,322.197 293.705,320.191C289.943,316.746 288.828,315.738 284.998,312.316C282.998,310.529 280.75,308.504 280.003,307.816C279.257,307.129 277.263,305.337 275.572,303.835C273.003,301.551 272.498,300.837 272.498,299.484C272.498,298.491 272.175,297.685 271.662,297.398C270.884,296.963 270.902,296.388 271.911,289.248C272.508,285.023 273.243,279.541 273.544,277.066C275.022,264.925 274.79,265.631 277.93,263.724C278.93,263.116 279.861,262.495 279.998,262.343C280.136,262.191 280.698,261.817 281.248,261.512C282.523,260.805 282.932,258.505 282.973,251.816C282.991,248.929 283.146,245.104 283.317,243.316L283.629,240.066L286.938,238.583C288.759,237.768 290.361,236.971 290.498,236.812C290.636,236.653 292.488,235.773 294.615,234.856C296.742,233.939 298.681,232.936 298.924,232.627C299.167,232.319 299.519,230.266 299.706,228.066C300.121,223.193 301.06,217.157 301.457,216.816C301.617,216.679 302.536,214.991 303.498,213.066C304.461,211.141 305.361,209.454 305.498,209.316C305.636,209.179 306.986,206.591 308.498,203.566C310.011,200.541 311.374,197.954 311.527,197.816C311.68,197.679 312.09,196.861 312.438,196C313.358,193.724 313.895,193.318 322.415,188.471C326.444,186.179 327.447,185.816 329.75,185.816C332.942,185.816 332.795,185.432 333.293,195.066L333.629,201.566L336.689,203.563C338.372,204.661 340.002,205.786 340.312,206.063C340.622,206.34 341.379,206.904 341.994,207.316C342.931,207.945 344.863,209.368 347.248,211.185C347.523,211.395 349.098,212.466 350.748,213.566C352.398,214.666 353.861,215.701 353.998,215.866C354.935,216.991 357.074,217.316 363.532,217.316C370.177,217.316 370.691,217.385 371.565,218.393C372.078,218.985 372.503,219.604 372.51,219.768C372.515,219.932 373.598,221.271 374.915,222.745L377.308,225.423L382.473,224.37C389.792,222.877 392.004,222.954 393.945,224.767C394.799,225.565 395.502,226.408 395.506,226.642C395.512,226.875 396.129,227.777 396.881,228.646C397.633,229.515 398.684,230.823 399.217,231.553C400.101,232.763 401.137,234.066 402.489,235.67C402.769,236.002 402.998,236.412 402.998,236.581C402.998,236.75 403.28,237.172 403.623,237.52C403.967,237.867 404.99,239.065 405.896,240.182C407.374,242.003 407.888,242.272 410.896,242.805C412.74,243.132 418.973,244.271 424.748,245.336C433.767,247 454.836,249.983 465.498,251.106C470.307,251.612 470.498,251.782 470.498,255.56C470.498,258.512 469.781,261.316 469.026,261.316C468.854,261.316 468.046,262.61 467.231,264.191C466.415,265.772 465.617,267.179 465.457,267.316C465.297,267.454 463.878,269.704 462.304,272.316C460.73,274.929 459.173,277.507 458.845,278.045C458.517,278.583 457.967,279.331 457.623,279.706C457.28,280.081 456.998,280.69 456.998,281.06C456.998,281.43 456.812,281.808 456.583,281.9C456.231,282.041 455.075,283.844 451.347,290.066C451.018,290.616 450.6,291.179 450.419,291.318C449.677,291.884 448.514,295.897 447.522,301.316C446.943,304.479 446.357,307.516 446.22,308.066C446.083,308.616 445.417,311.991 444.739,315.566C444.062,319.141 443.07,324.316 442.537,327.066C442.003,329.816 441.103,334.541 440.536,337.566C438.743,347.127 437.621,352.36 437.294,352.687C436.785,353.197 431.689,353.251 425.556,352.813L425.556,352.813Z" style="fill-rule:nonzero;"/>
        </g>
        <g id="guadeloupe" transform="matrix(0.753746,0,0,0.753746,-19.818,29.5251)">
            <path d="M651.32,614.066C650.907,613.654 650.431,613.316 650.262,613.316C650.093,613.316 649.348,612.754 648.607,612.066C647.865,611.379 647.071,610.816 646.843,610.816C645.634,610.816 644.998,609.206 644.998,606.143C644.998,603.382 645.267,602.391 646.803,599.483C650.375,592.718 649.618,593.316 654.606,593.316C657.201,593.316 658.998,593.521 658.998,593.816C658.998,594.091 659.234,594.316 659.521,594.316C659.809,594.316 660.571,594.822 661.216,595.441C661.861,596.06 663.538,597.556 664.943,598.766L667.498,600.966L667.498,604.522C667.498,607.799 667.393,608.157 666.158,609.072C665.421,609.619 664.306,610.572 663.681,611.191C663.056,611.81 662.363,612.316 662.141,612.316C661.919,612.316 661.131,612.879 660.39,613.566C659.22,614.651 658.582,614.816 655.556,614.816C653.124,614.816 651.843,614.589 651.32,614.066ZM656.498,604.263C656.498,604.017 656.161,603.816 655.748,603.816C655.336,603.816 654.998,604.147 654.998,604.55C654.998,604.998 655.291,605.172 655.748,604.997C656.161,604.839 656.498,604.508 656.498,604.263ZM600.623,609.485C600.28,609.346 599.998,609.016 599.998,608.752C599.998,608.487 599.436,607.708 598.748,607.021C598.061,606.333 597.498,605.493 597.498,605.154C597.498,604.815 597.048,604.213 596.498,603.816C595.948,603.42 595.498,602.808 595.498,602.456C595.498,602.104 595.273,601.816 594.998,601.816C594.681,601.816 594.498,598.099 594.498,591.666C594.498,585.084 594.309,581.327 593.96,580.978C593.664,580.682 591.526,579.796 589.21,579.009L584.998,577.579L584.998,573.781C584.998,570.488 585.331,569.053 587.489,563.024C588.858,559.197 589.983,555.57 589.989,554.964C589.997,554.096 590.383,553.789 591.809,553.522C593.827,553.143 606.089,553.673 609.335,554.278C611.206,554.628 612.998,555.737 612.998,556.547C612.998,556.713 613.799,557.65 614.778,558.629C616.678,560.53 618.098,560.645 619.713,559.03C620.82,557.923 620.722,557.573 618.748,555.6C617.786,554.637 616.998,553.715 616.998,553.55C616.998,553.386 615.873,552.155 614.498,550.816L611.998,548.381L611.998,545.076C611.998,542.233 612.17,541.599 613.226,540.543C613.901,539.868 614.688,539.316 614.976,539.316C615.263,539.316 615.498,539.114 615.498,538.867C615.498,538.62 617.17,536.708 619.214,534.617L622.93,530.816L626.589,530.802C629.13,530.791 631.471,531.169 634.248,532.038C636.448,532.727 639.285,533.542 640.552,533.849L642.855,534.407L643.465,541.237C643.801,544.994 644.115,548.396 644.165,548.797C644.274,549.689 644.425,549.725 661.123,552.882C663.227,553.28 664.498,553.765 664.498,554.169C664.498,554.525 664.699,554.817 664.944,554.817C665.189,554.817 665.531,555.38 665.704,556.067C665.876,556.755 666.22,557.317 666.468,557.317C666.716,557.317 667.067,557.992 667.248,558.817C667.429,559.642 667.754,560.317 667.97,560.317C668.814,560.317 669.998,564.75 669.998,567.906L669.998,571.212L662.123,571.556C654.713,571.879 650.998,572.501 650.998,573.418C650.998,573.637 650.677,573.817 650.284,573.817C649.891,573.817 649.262,574.125 648.886,574.501C648.509,574.877 647.706,575.343 647.1,575.535C646.494,575.727 645.998,576.07 645.998,576.297C645.998,576.523 645.436,576.85 644.748,577.023C644.061,577.195 643.498,577.539 643.498,577.787C643.498,578.035 642.823,578.386 641.998,578.567C641.173,578.748 640.498,579.089 640.498,579.323C640.498,579.558 640.003,579.907 639.397,580.099C638.791,580.292 637.987,580.757 637.611,581.133C637.235,581.509 636.605,581.817 636.213,581.817C635.82,581.817 635.498,582.042 635.498,582.317C635.498,583.09 627.904,582.916 625.561,582.089C624.427,581.689 623.498,581.504 623.498,581.679C623.498,582.488 624.743,585.317 625.099,585.317C625.318,585.317 625.499,586.498 625.499,587.942C625.499,591.936 624.39,601.317 623.917,601.317C623.687,601.317 623.498,601.655 623.498,602.067C623.498,602.48 623.298,602.817 623.053,602.817C622.807,602.817 622.466,603.38 622.293,604.067C622.12,604.755 621.759,605.317 621.489,605.317C621.219,605.317 620.998,605.631 620.998,606.014C620.998,606.898 620.131,607.228 615.498,608.106C613.436,608.496 610.736,609.031 609.498,609.295C607.133,609.798 601.688,609.916 600.623,609.486L600.623,609.485ZM571.248,542.065C569.598,541.688 567.543,541.366 566.682,541.348C564.801,541.31 564.515,540.567 564.505,535.691C564.499,533.62 564.705,532.316 565.034,532.316C565.329,532.316 565.866,532.035 566.229,531.691C566.591,531.347 567.512,530.616 568.275,530.066C569.039,529.516 569.948,528.785 570.295,528.441C570.643,528.097 571.14,527.816 571.401,527.816C571.662,527.816 572.163,527.47 572.515,527.047C573.009,526.451 574.011,526.31 576.94,526.422C580.5,526.558 580.748,526.642 581.074,527.816C581.265,528.504 581.906,530.754 582.498,532.816C583.218,535.323 583.521,537.561 583.412,539.566L583.248,542.566L578.748,542.658C576.273,542.708 572.898,542.442 571.248,542.065L571.248,542.065ZM600.873,539.971C600.146,539.782 599.998,539.157 599.998,536.279L599.998,532.816L608.498,532.816L608.498,540.316L605.123,540.258C603.267,540.226 601.355,540.097 600.873,539.971L600.873,539.971Z" style="fill-rule:nonzero;"/>
        </g>
        <g id="guyane" transform="matrix(0.753746,0,0,0.753746,-19.818,29.5251)">
            <path d="M601.248,275.436C598.498,274.735 595.967,274.091 595.623,274.005C594.652,273.76 594.772,265.308 595.765,264.043C596.186,263.506 597.647,261.491 599.01,259.566C600.373,257.641 601.686,255.827 601.926,255.535C603.213,253.969 603.498,252.445 603.498,247.126C603.498,241.437 603.518,241.335 605.269,238.349C607.347,234.804 607.35,234.82 603.625,230.452C602.025,228.575 601.814,228.312 599.507,225.316C598.554,224.079 597.639,222.954 597.474,222.816C597.309,222.679 596.447,219.079 595.558,214.816C594.669,210.554 593.617,205.702 593.22,204.034C592.823,202.367 592.498,199.524 592.498,197.718L592.498,194.433L598.94,187.819L605.382,181.204L605.714,178.265C605.897,176.649 606.283,174.649 606.572,173.821C607.043,172.47 607.311,172.316 609.197,172.316C610.827,172.316 612.745,173.08 617.773,175.734L624.248,179.151L630.895,179.468C637.368,179.777 637.604,179.829 639.895,181.426C641.19,182.328 642.473,183.313 642.748,183.614C643.023,183.915 644.036,184.695 644.998,185.347C645.961,186 647.022,186.766 647.356,187.05C648.2,187.767 648.94,188.337 651.249,190.048C652.349,190.863 653.515,191.763 653.84,192.048C654.166,192.333 655.346,193.227 656.462,194.035C657.579,194.842 659.11,196.417 659.866,197.535C662.097,200.833 662.856,201.316 665.81,201.316L668.468,201.316L671.076,206.691C673.371,211.42 673.71,212.524 673.891,215.872L674.098,219.678L671.792,222.872C670.524,224.629 669.208,226.443 668.867,226.904C668.527,227.364 667.911,228.226 667.498,228.818C667.086,229.41 665.736,231.31 664.498,233.041C663.261,234.772 661.911,236.685 661.498,237.291C661.086,237.898 659.68,239.868 658.373,241.67C657.067,243.472 655.998,245.323 655.998,245.784C655.998,246.245 655.576,247.959 655.061,249.594C654.545,251.229 653.616,254.366 652.996,256.566C650.341,265.99 650.664,265.342 647.267,268.066C646.239,268.891 645.139,269.799 644.823,270.084C641.964,272.663 640.571,273.316 637.951,273.304C636.244,273.297 634.144,272.838 632.248,272.057C629.326,270.855 629.185,270.843 626.807,271.632C625.075,272.205 623.33,272.367 620.81,272.187L617.256,271.932L614.333,274.374C611.627,276.636 611.22,276.812 608.83,276.763C607.41,276.733 603.998,276.136 601.248,275.436L601.248,275.436Z" style="fill-rule:nonzero;"/>
        </g>
        <g id="hauts-de-france" transform="matrix(0.753746,0,0,0.753746,-19.818,29.5251)">
            <path d="M265.623,258.691C264.502,257.522 260.81,253.854 257.417,250.539L251.248,244.512L238.748,243.048C230.166,242.043 223.271,241.541 216.748,241.445C211.523,241.368 206.742,241.191 206.123,241.051C205.067,240.813 204.998,240.543 204.998,236.636C204.998,234.347 205.338,227.637 205.754,221.724L206.51,210.973L203.754,203.333C202.238,199.131 200.998,195.29 200.998,194.796C200.998,194.303 200.814,193.825 200.589,193.733C200.365,193.641 199.352,191.298 198.339,188.526L196.498,183.486L196.524,175.026C196.569,160.574 197.296,150.191 198.727,143.566C199.439,140.266 200.35,135.902 200.75,133.868C201.151,131.834 201.561,130.086 201.663,129.985C201.893,129.755 208.682,127.785 214.998,126.116C217.611,125.425 221.323,124.423 223.248,123.89C236.042,120.343 238.644,119.773 241.39,119.917L244.248,120.066L244.522,137.348L245.885,137.951C246.635,138.283 247.545,138.838 247.909,139.185C248.272,139.532 248.762,139.816 248.998,139.816C249.234,139.816 249.735,140.124 250.112,140.501C250.489,140.878 251.505,141.553 252.371,142C253.867,142.774 254.038,142.76 255.846,141.712C256.892,141.107 257.882,140.42 258.045,140.186C258.208,139.953 259.662,139.83 261.276,139.914C264.199,140.066 264.214,140.075 264.954,142.066C265.362,143.166 265.835,144.179 266.005,144.316C266.175,144.454 267.318,147.152 268.544,150.313C271.113,156.936 270.687,156.652 278.248,156.765C280.723,156.801 283.015,157.001 283.34,157.208C283.666,157.415 284.712,159.718 285.666,162.325C286.619,164.933 287.566,167.483 287.771,167.992C288.101,168.81 288.513,168.878 291.321,168.577C296.436,168.029 297.197,168.374 298.252,171.715C298.747,173.283 300.468,178.343 302.075,182.959C305.451,192.652 305.768,195.534 303.875,199.316C303.255,200.554 302.629,201.679 302.484,201.816C302.339,201.954 301.783,203.079 301.248,204.316C300.713,205.554 300.157,206.679 300.012,206.816C299.867,206.954 298.961,208.641 297.998,210.566C297.036,212.491 296.136,214.179 295.998,214.316C294.975,215.339 293.904,219.214 293.202,224.426C292.748,227.803 292.309,230.642 292.227,230.735C292.054,230.93 290.155,231.42 283.339,233.027C280.639,233.664 278.258,234.383 278.049,234.626C277.84,234.868 276.723,240.668 275.567,247.516C274.411,254.363 273.347,260.156 273.202,260.391C273.058,260.625 271.752,260.816 270.3,260.816C267.848,260.816 267.516,260.665 265.623,258.691L265.623,258.691Z" style="fill-rule:nonzero;"/>
        </g>
        <g id="ile-de-france" transform="matrix(0.753746,0,0,0.753746,-19.818,29.5251)">
            <path d="M232.998,309.441L228.248,309.274L225.748,304.494L223.248,299.714L220.748,300.034C216.119,300.628 209.132,300.958 207.874,300.642C207.121,300.453 206.377,299.731 206.001,298.822C205.658,297.994 205.213,297.316 205.014,297.316C204.814,297.316 204.244,296.416 203.748,295.316C203.252,294.216 202.671,293.316 202.456,293.316C202.241,293.316 201.923,292.867 201.749,292.319C201.575,291.771 201.166,291.028 200.841,290.668C200.082,289.829 198.901,287.73 194.177,278.816C192.063,274.829 190.161,271.449 189.949,271.307C188.812,270.542 189.134,256.234 190.307,255.389C190.553,255.211 191.416,254.166 192.225,253.066C193.034,251.966 193.827,250.954 193.989,250.816C194.15,250.679 195.175,249.441 196.265,248.066C199.351,244.176 198.929,244.314 206.748,244.623C222.508,245.246 237.203,246.364 244.737,247.514L252.725,248.734L254.487,250.69C255.456,251.766 257,253.573 257.919,254.707C258.837,255.84 260.016,257.285 260.537,257.917C261.058,258.549 261.994,259.695 262.616,260.464C263.239,261.233 264.536,262.745 265.498,263.824C269.308,268.094 269.999,268.963 270.01,269.504C270.017,269.813 270.235,272.766 270.494,276.066L270.967,282.066L268.641,291.506L266.315,300.946L260.342,300.7C254.834,300.473 254.35,300.526 254.127,301.379C253.994,301.888 253.701,302.192 253.477,302.053C253.014,301.767 252.795,302.413 252.008,306.389C251.565,308.625 251.22,309.274 250.349,309.507C249.269,309.797 242.421,309.77 232.998,309.44L232.998,309.441Z" style="fill-rule:nonzero;"/>
        </g>
        <g id="la-reunion" transform="matrix(0.753746,0,0,0.753746,-19.818,29.5251)">
            <path d="M623.498,380.724C621.161,379.537 619.136,378.454 618.998,378.316C617.954,377.272 609.047,373.772 605.675,373.082C604.579,372.857 603.138,371.696 600.925,369.254C599.178,367.326 597.467,365.442 597.123,365.068C596.78,364.694 596.498,363.794 596.498,363.07C596.498,362.345 596.059,360.697 595.522,359.409C594.986,358.12 594.302,356.11 594.003,354.941C593.656,353.583 592.727,352.092 591.428,350.805L589.397,348.794L589.572,344.68C589.742,340.711 589.814,340.496 591.623,338.587C592.654,337.498 593.498,336.317 593.498,335.962C593.498,335.607 593.694,335.316 593.934,335.316C594.173,335.316 594.528,333.076 594.722,330.338C595.043,325.819 595.176,325.328 596.162,325.021C596.759,324.836 599.836,323.429 602.998,321.895C608.244,319.35 609.1,319.089 612.76,318.914C615.466,318.785 619.487,319.146 625.12,320.024C632.107,321.113 633.883,321.569 636.006,322.821C637.938,323.96 639.163,324.318 641.145,324.324C642.577,324.327 644.006,324.497 644.321,324.699C644.636,324.901 645.165,326.866 645.496,329.066C645.827,331.266 646.413,333.825 646.798,334.752C647.183,335.68 647.498,337.163 647.498,338.049C647.498,339.518 647.929,339.965 652.373,343.109C659.789,348.354 659.498,348.008 659.498,351.593C659.498,354.015 659.209,355.208 658.172,357.064C656.878,359.378 656.848,359.632 656.955,367.196L657.065,374.955L655.168,376.899C653.765,378.335 652.419,379.092 650.009,379.799C644.793,381.331 638.648,382.352 632.998,382.626L627.748,382.881L623.498,380.724Z" style="fill-rule:nonzero;"/>
        </g>
        <g id="martinique" transform="matrix(0.753746,0,0,0.753746,-19.818,29.5251)">
            <path d="M647.25,493.446C645.252,493.153 645.015,492.651 645.006,488.701C645,485.501 644.935,485.319 643.706,485.011C642.996,484.833 638.034,484.85 632.681,485.05L622.948,485.413L621.702,483.99C621.016,483.207 619.959,481.923 619.352,481.137C618.745,480.351 617.517,478.953 616.623,478.029C615.127,476.483 614.998,476.091 614.998,473.083C614.998,471.286 615.167,469.813 615.373,469.809C615.794,469.801 617.643,468.375 620.402,465.929C621.417,465.029 622.871,464.157 623.631,463.99C624.733,463.75 624.899,463.549 624.446,463.004C624.002,462.468 622.823,462.388 619.03,462.637C612.093,463.091 611.047,462.654 608.968,458.422C608.061,456.576 606.684,453.988 605.908,452.669C604.729,450.664 604.498,449.708 604.498,446.814C604.498,443.12 604.348,442.846 600.823,440.155C596.977,437.218 596.998,437.266 596.998,431.388C596.998,425.435 596.857,425.756 601.051,422.208C602.26,421.186 603.811,419.866 604.498,419.275C605.67,418.267 606.125,418.217 611.748,418.466C616.594,418.68 618.414,418.985 621.21,420.052C624.227,421.203 625.347,421.873 628.352,424.324C628.684,424.595 629.094,424.816 629.263,424.816C629.432,424.816 629.883,425.097 630.267,425.441C631.767,426.787 632.468,427.316 632.749,427.316C632.91,427.316 633.649,427.879 634.39,428.566C635.131,429.254 635.919,429.816 636.14,429.816C636.842,429.816 640.498,433.449 640.498,434.147C640.498,434.975 640.59,434.985 646.873,434.832L651.998,434.707L651.99,436.887C651.981,438.946 651.843,439.156 649.496,440.691C648.129,441.585 646.445,442.316 645.755,442.316C644.581,442.316 644.499,442.48 644.499,444.816C644.499,446.97 644.635,447.316 645.484,447.316C646.588,447.316 650.051,449.127 650.616,449.999C651.197,450.895 651.071,451.181 649.97,451.469C649.081,451.701 648.962,452.067 649.095,454.152L649.249,456.566L653.749,456.858C656.74,457.051 659.045,457.507 660.624,458.215L662.999,459.281L662.999,462.699C662.999,464.578 662.796,466.33 662.548,466.591C662.3,466.853 661.743,468.124 661.312,469.418C660.573,471.629 660.585,471.897 661.502,473.918C662.146,475.336 662.481,477.182 662.488,479.351C662.499,482.978 662.306,483.298 656.134,489.808C654.696,491.325 653.515,492.848 653.509,493.191C653.498,493.817 650.58,493.936 647.25,493.446L647.25,493.446Z" style="fill-rule:nonzero;"/>
        </g>
        <g id="corse1" serif:id="corse" transform="matrix(0.753746,0,0,0.753746,-19.818,29.5251)">
            <path d="M617.248,737.557C615.598,737.21 613.461,736.784 612.498,736.611C611.158,736.369 610.425,735.799 609.369,734.18C603.667,725.439 603.498,725.119 603.498,723.023C603.498,721.353 603.7,720.88 604.498,720.671C605.311,720.459 605.498,719.989 605.498,718.163C605.498,716.414 605.101,715.327 603.703,713.249C600.695,708.779 600.718,708.975 603.083,707.832C605.605,706.614 606.904,706.555 608.387,707.595C608.998,708.023 609.502,708.191 609.506,707.97C609.512,707.748 609.732,707.904 609.998,708.316C610.265,708.729 610.486,708.839 610.491,708.561C610.496,708.283 609.936,707.449 609.248,706.708C608.257,705.639 607.991,704.813 607.962,702.713C607.942,701.257 607.749,698.829 607.534,697.316C607.182,694.843 607.265,694.405 608.36,692.967L609.578,691.367L607.286,687.162C605.345,683.601 604.564,682.678 602.189,681.137C600.647,680.135 599.185,679.316 598.942,679.316C598.698,679.316 598.498,679.143 598.498,678.93C598.498,678.718 597.711,678.12 596.748,677.601C595.786,677.083 594.998,676.312 594.998,675.889C594.998,675.466 594.75,672.573 594.446,669.461C593.882,663.683 594.02,661.895 595.124,660.724C595.467,660.359 597.436,658.153 599.498,655.821C601.561,653.488 603.662,651.127 604.167,650.573C604.672,650.019 605.789,648.723 606.649,647.691C608.17,645.869 608.307,645.816 611.545,645.816C613.96,645.816 615.055,646.032 615.526,646.6C615.884,647.031 617.487,650.003 619.088,653.203C621.101,657.229 621.998,659.607 621.998,660.919C621.998,663.045 622.84,663.423 623.998,661.816C625.428,659.833 633.323,660.745 635.909,663.191C636.272,663.535 636.872,663.816 637.242,663.816C637.612,663.816 637.99,663.985 638.082,664.191C638.173,664.398 640.498,665.724 643.248,667.138L648.248,669.71L648.395,672.939C648.523,675.773 648.3,676.723 646.58,680.689C644.899,684.566 643.797,686.228 640.73,689.511C639.152,691.202 637.457,693.816 637.939,693.816C638.247,693.816 638.498,694.031 638.498,694.294C638.498,694.707 640.204,697.546 641.366,699.066C642.826,700.977 643.997,704.618 643.983,707.205C643.966,710.356 644.198,710.051 638.498,714.437C633.017,718.655 632.958,718.846 636.185,721.879C637.595,723.204 638.917,724.294 639.123,724.302C639.33,724.31 639.498,725.742 639.498,727.485L639.498,730.653L636.873,732.034C632.353,734.414 631.258,735.053 630.929,735.505C630.344,736.311 623.85,738.317 622.037,738.252C621.053,738.216 618.898,737.904 617.248,737.557L617.248,737.557ZM648.998,681.699C648.998,679.815 649.384,678.345 650.373,676.45L651.748,673.819L659.111,673.819L658.912,677.348C658.802,679.289 658.453,681.037 658.136,681.233C657.82,681.429 657.327,682.203 657.042,682.954C656.54,684.273 656.398,684.319 652.761,684.319L648.998,684.319L648.998,681.701L648.998,681.699Z" style="fill-rule:nonzero;"/>
        </g>
        <g id="normandie" transform="matrix(0.753746,0,0,0.753746,-19.818,29.5251)">
            <path d="M143.248,285.096C134.04,277.994 133.05,277.362 130.748,277.111C129.373,276.961 119.248,276.375 108.248,275.809C88.866,274.811 80.362,273.919 77.248,272.556C76.423,272.195 73.528,269.762 70.815,267.15L65.881,262.4L64.965,257.483C64.461,254.779 63.476,249.416 62.775,245.566C61.357,237.765 60.987,236.277 56.998,222.316C56.448,220.391 55.537,217.185 54.973,215.191C54.41,213.197 53.735,210.875 53.473,210.031C53.212,209.186 52.998,207.011 52.998,205.197L52.998,201.899L55.123,201.118C56.292,200.689 61.022,199.084 65.634,197.552C72.61,195.235 74.501,194.792 76.883,194.917L79.746,195.066L84.548,208.066L89.349,221.066L113.674,221.196L137.998,221.326L137.998,203.925L139.873,203.175C140.905,202.762 146.811,200.713 152.998,198.621C166.948,193.905 175.839,190.805 179.748,189.296C183.318,187.918 189.989,187.337 190.014,188.402C190.022,188.767 190.589,190.191 191.273,191.566C191.958,192.941 193.335,196.091 194.334,198.566C195.334,201.041 196.316,203.291 196.518,203.566C196.72,203.841 197.609,205.866 198.494,208.066C200.033,211.89 200.092,212.286 199.833,217.066C199.684,219.816 199.063,226.679 198.453,232.316L197.343,242.566L186.407,253.249L186.554,256.908C186.673,259.854 186.512,260.858 185.729,262.066C184.269,264.317 184.187,264.424 182.403,266.379C180.782,268.155 180.542,268.236 170.748,270.292C165.248,271.447 160.355,272.502 159.873,272.638C159.077,272.861 158.998,273.785 158.998,282.85L158.998,292.816L153.248,292.805L143.248,285.093L143.248,285.096Z" style="fill-rule:nonzero;"/>
        </g>
        <g id="nouvelle-aquitaine" transform="matrix(0.753746,0,0,0.753746,-19.818,29.5251)">
            <path d="M67.998,630.794C65.386,629.174 62.967,627.841 62.623,627.832C62.28,627.823 61.998,627.606 61.998,627.35C61.998,627.093 61.503,626.726 60.897,626.534C60.291,626.341 59.487,625.876 59.111,625.5C58.735,625.124 58.105,624.816 57.713,624.816C57.32,624.816 56.998,624.606 56.998,624.35C56.998,624.093 56.503,623.726 55.897,623.534C55.291,623.341 54.487,622.876 54.111,622.5C53.735,622.124 53.105,621.816 52.713,621.816C52.32,621.816 51.998,621.591 51.998,621.316C51.998,621.041 51.661,620.816 51.248,620.816C50.836,620.816 50.498,620.596 50.498,620.326C50.498,620.056 49.936,619.694 49.248,619.521C48.561,619.349 47.998,619.007 47.998,618.762C47.998,618.517 47.677,618.316 47.284,618.316C46.891,618.316 46.262,618.008 45.886,617.632C45.509,617.256 44.706,616.791 44.1,616.598C43.494,616.406 42.998,616.039 42.998,615.782C42.998,615.526 42.75,615.316 42.447,615.316C42.144,615.316 38.904,613.516 35.248,611.316C31.592,609.116 28.353,607.316 28.049,607.316C27.746,607.316 27.498,607.106 27.498,606.85C27.498,606.593 27.002,606.226 26.397,606.034C25.791,605.841 24.987,605.376 24.611,605C24.235,604.624 23.605,604.316 23.213,604.316C22.82,604.316 22.498,604.113 22.498,603.865C22.498,603.617 21.88,603.154 21.123,602.836C16.984,601.094 16.773,600.708 17.086,595.434C17.224,593.094 17.711,591.172 18.682,589.137C19.45,587.526 20.871,584.151 21.839,581.637C22.807,579.123 23.768,576.841 23.975,576.566C24.181,576.291 25.329,573.479 26.525,570.316C27.721,567.154 28.831,564.454 28.991,564.316C29.152,564.179 30.28,561.479 31.498,558.316C32.717,555.154 33.842,552.454 33.998,552.316C34.155,552.179 35.28,549.479 36.498,546.316C37.717,543.154 38.845,540.454 39.005,540.316C39.165,540.179 40.275,537.479 41.471,534.316C42.667,531.154 43.816,528.341 44.023,528.066C44.231,527.791 45.226,525.429 46.234,522.816C47.243,520.204 48.468,517.279 48.956,516.316C50.453,513.367 50.953,511.278 51.468,505.816C51.741,502.929 52.415,496.179 52.967,490.816C53.52,485.454 54.327,477.579 54.763,473.316C55.198,469.054 55.664,464.835 55.799,463.941L56.044,462.316L64.044,462.316L63.729,460.441C63.557,459.41 63.112,457.554 62.742,456.316C60.231,447.921 59.998,445.87 59.998,432.159L59.998,418.93L62.246,418.593C64.373,418.274 74.253,418.513 83.419,419.106L87.589,419.376L87.224,398.701C86.896,380.108 86.939,377.946 87.659,377.227C88.105,376.781 90.51,376.058 93.103,375.59C98.704,374.581 106.441,373.133 113.347,371.8C121.8,370.169 127.065,370.533 129.711,372.932C130.241,373.412 131.085,373.935 131.586,374.094C132.088,374.253 132.498,374.593 132.498,374.85C132.498,375.106 132.817,375.316 133.207,375.316C133.596,375.316 133.99,375.485 134.082,375.691C134.323,376.235 138.94,379.316 139.513,379.316C139.78,379.316 139.998,379.537 139.998,379.807C139.998,380.076 140.561,380.438 141.248,380.611C141.936,380.783 142.498,381.078 142.498,381.265C142.498,381.453 143.623,382.263 144.998,383.066C146.373,383.869 147.498,384.689 147.498,384.887C147.498,385.086 148.005,385.409 148.623,385.604C149.863,385.995 151.846,388.074 152.285,389.441C152.439,389.922 152.751,390.316 152.978,390.316C153.205,390.316 153.531,390.879 153.704,391.566C153.876,392.254 154.238,392.816 154.508,392.816C154.778,392.816 154.998,393.137 154.998,393.53C154.998,393.923 155.323,394.57 155.721,394.967C156.118,395.364 157.514,397.461 158.824,399.628C160.134,401.794 161.46,403.826 161.77,404.145C162.08,404.463 163.549,406.775 165.033,409.282C167.387,413.259 167.956,413.896 169.49,414.277C170.457,414.518 179.202,415.089 188.924,415.547C198.645,416.005 207.098,416.569 207.708,416.801C208.853,417.236 209.298,418.39 213.019,430.566C213.859,433.316 215.333,438.041 216.294,441.066C217.256,444.091 218.257,447.257 218.52,448.102C218.788,448.962 218.998,457.764 218.998,468.123L218.998,486.608L216.751,489.087C215.514,490.45 214.502,491.737 214.501,491.946C214.5,492.154 213.816,493.039 212.982,493.912C212.148,494.785 210.966,496.152 210.357,496.951C209.747,497.749 208.967,498.704 208.623,499.074C208.28,499.443 207.998,499.875 207.998,500.035C207.998,500.194 207.316,501.039 206.482,501.912C205.648,502.785 204.466,504.152 203.857,504.951C203.247,505.749 202.467,506.704 202.123,507.074C201.78,507.443 201.498,507.874 201.498,508.032C201.498,508.19 200.489,509.388 199.255,510.693L197.012,513.066L192.88,513.03C190.608,513.01 184.075,512.493 178.362,511.88C169.199,510.898 167.889,510.854 167.237,511.506C166.831,511.912 166.498,512.375 166.498,512.535C166.498,512.694 165.823,513.531 164.998,514.395C164.173,515.258 163.498,516.14 163.498,516.354C163.498,516.569 163.216,517.042 162.87,517.405C162.049,518.269 160.008,520.83 158.748,522.578C158.198,523.341 157.133,524.663 156.381,525.515C155.629,526.368 155.011,527.245 155.006,527.464C155.002,527.683 154.492,528.373 153.873,528.999C153.255,529.624 152.298,530.764 151.748,531.531C151.198,532.299 150.467,533.223 150.123,533.586C149.78,533.948 149.498,534.373 149.498,534.529C149.498,534.686 148.711,535.649 147.748,536.669C146.786,537.69 145.998,538.815 145.998,539.17C145.998,539.525 145.809,539.816 145.578,539.816C145.006,539.816 143.29,545.748 141.454,554.066C140.435,558.684 140.078,559.808 139.42,560.466C139.004,560.882 132.723,562.193 123.737,563.74C97.981,568.173 94.303,568.856 93.763,569.304C93.475,569.543 92.707,571.388 92.058,573.403C91.409,575.417 90.089,579.302 89.125,582.036L87.373,587.005L88.55,589.161C89.198,590.346 89.854,591.316 90.008,591.316C90.162,591.316 90.945,592.441 91.748,593.816C92.551,595.191 93.335,596.316 93.49,596.316C93.644,596.316 94.195,597.104 94.713,598.066C95.232,599.029 95.867,599.816 96.125,599.816C96.397,599.816 96.522,601.782 96.422,604.478C96.288,608.088 96.051,609.336 95.373,610.013C94.892,610.494 94.498,611.112 94.498,611.387C94.498,611.662 94.204,612.182 93.845,612.541C93.485,612.901 91.11,616.653 88.567,620.88C82.475,631.007 82.837,630.427 82.123,631.206C81.78,631.581 81.498,632.185 81.498,632.548C81.498,633.535 80.301,633.82 76.332,633.778C72.856,633.742 72.606,633.652 67.998,630.794L67.998,630.794Z" style="fill-rule:nonzero;"/>
        </g>
        <g id="occitanie" transform="matrix(0.753746,0,0,0.753746,-19.818,29.5251)">
            <path d="M209.998,672.96C209.586,672.807 208.348,672.248 207.248,671.718C206.148,671.187 203.911,670.203 202.277,669.531C199.397,668.346 199.214,668.331 196.361,669.062C194.742,669.477 191.349,669.816 188.82,669.816L184.223,669.816L179.11,664.757C174.022,659.722 173.998,659.687 173.998,657.267C173.998,654.429 174.478,654.644 166.248,653.786C157.661,652.89 157.131,652.692 156.637,650.19L156.221,648.087L151.735,646.972C146.013,645.55 144.551,645.049 140.146,642.995C138.165,642.072 136.321,641.316 136.049,641.316C135.776,641.316 135.484,642.385 135.401,643.691L135.248,646.066L130.748,646.215C127.946,646.307 123.889,645.985 119.998,645.36C116.561,644.808 109.698,643.775 104.748,643.064C92.384,641.288 87.865,640.407 87.405,639.683C87.19,639.344 87.01,638.118 87.006,636.959C87,635.23 88.226,632.449 93.839,621.459C97.602,614.093 100.9,607.918 101.169,607.737C101.711,607.373 100.755,604.644 99.724,603.613C99.384,603.273 98.49,601.774 97.736,600.281C96.983,598.788 96.201,597.454 95.998,597.316C95.795,597.179 95.042,595.901 94.323,594.477C93.605,593.052 92.788,591.745 92.508,591.572C91.643,591.037 91.944,586.439 93.042,583.429C93.616,581.854 94.573,579.161 95.167,577.442C96.152,574.597 96.426,574.255 98.248,573.597C99.348,573.2 102.386,572.52 104.998,572.086C107.611,571.652 110.648,571.081 111.748,570.817C112.848,570.553 118.023,569.528 123.248,568.541C138.529,565.652 142.73,564.775 143.036,564.41C143.195,564.221 143.589,563.166 143.913,562.066C145.303,557.346 147.129,550.953 147.483,549.566C148.537,545.444 149.631,542.253 150.186,541.692C150.525,541.348 152.187,539.154 153.88,536.816C155.572,534.479 157.144,532.341 157.372,532.066C157.601,531.791 159.114,529.766 160.736,527.566C162.358,525.366 163.965,523.284 164.309,522.938C164.652,522.593 165.075,521.862 165.249,521.313C165.423,520.765 165.757,520.316 165.991,520.316C166.225,520.316 166.896,519.54 167.482,518.592C168.068,517.644 169.015,516.719 169.586,516.538C170.909,516.119 194.142,517.266 196.567,517.871L198.387,518.325L200.748,525.445C202.047,529.362 203.141,532.604 203.179,532.649C203.217,532.695 206.483,533.104 210.436,533.559L217.624,534.387L219.436,532.473C220.433,531.42 221.811,529.831 222.498,528.942C223.71,527.375 223.864,527.325 227.498,527.322L231.248,527.319L232.602,529.443C235.235,533.573 236.243,534.317 239.208,534.317C241.718,534.317 241.915,534.225 242.516,532.774C242.867,531.926 243.434,530.952 243.776,530.611C244.117,530.27 245.123,528.545 246.012,526.779C246.9,525.012 247.879,523.402 248.188,523.2C249.319,522.458 262.301,522.973 270.872,524.099C273.492,524.443 273.669,524.749 275.771,532.551C276.662,535.86 277.882,540.367 278.482,542.567C279.082,544.767 279.874,547.692 280.241,549.067C281.875,555.179 282.018,555.4 284.998,556.43C287.539,557.309 288.227,557.335 294.034,556.777C302.098,556.001 303.226,556.231 306.56,559.329L309.239,561.817L317.531,561.817L319.801,566.442C322.841,572.637 322.736,573.949 318.708,580.069C317.08,582.543 315.613,584.68 315.448,584.817C315.283,584.954 314.872,585.591 314.534,586.232C314.197,586.872 313.616,587.772 313.244,588.232C312.872,588.691 311.994,589.769 311.294,590.626C310.417,591.7 309.416,592.282 308.084,592.495L306.148,592.805L306.388,596.556C306.669,600.924 306.554,601.129 302.582,603.36C301.024,604.236 299.636,605.102 299.498,605.286C299.361,605.47 298.434,606.114 297.439,606.718C296.005,607.589 294.864,607.816 291.939,607.812L288.248,607.806L285.651,605.332L283.053,602.857L279.901,605.177C278.167,606.453 276.494,607.738 276.184,608.032C275.874,608.326 275.116,608.904 274.498,609.316C273.881,609.729 273.082,610.348 272.723,610.691C272.363,611.035 271.924,611.316 271.746,611.316C271.414,611.316 265.448,615.76 264.998,616.343C264.298,617.249 262.274,617.816 259.745,617.816C258.172,617.816 256.638,618.092 256.274,618.441C255.915,618.785 255.118,619.404 254.504,619.816C253.89,620.229 252.762,621.129 251.998,621.816C251.234,622.504 250.109,623.404 249.498,623.816C248.887,624.229 247.76,625.129 246.992,625.816C246.225,626.504 245.012,627.492 244.297,628.011C243.157,628.841 242.998,629.31 242.998,631.855C242.998,633.875 242.544,635.931 241.501,638.641C239.187,644.65 239.173,645.12 241.151,650.14C245.87,662.114 246.498,663.952 246.498,665.795C246.498,668.782 245.75,668.996 236.777,668.576L229.203,668.221L225.226,669.872C223.038,670.78 221.136,671.665 220.998,671.838C220.056,673.023 212.305,673.814 209.998,672.96L209.998,672.96Z" style="fill-rule:nonzero;"/>
        </g>
        <g id="paca" transform="matrix(0.753746,0,0,0.753746,-19.818,29.5251)">
            <path d="M359.123,633.693C358.23,633.406 357.498,633.006 357.498,632.805C357.498,632.603 356.767,632.138 355.873,631.773C354.98,631.407 353.951,630.818 353.588,630.462C353.224,630.107 352.605,629.816 352.213,629.816C351.82,629.816 351.498,629.595 351.498,629.326C351.498,629.056 350.936,628.694 350.248,628.521C349.561,628.349 348.998,628.022 348.998,627.796C348.998,627.569 348.492,627.226 347.873,627.032C347.255,626.839 346.636,626.529 346.498,626.343C346.361,626.157 344.786,625.133 342.998,624.066C341.211,623 339.593,621.896 339.402,621.614C339.212,621.332 338.9,619.106 338.71,616.667C338.443,613.257 338.176,612.164 337.556,611.936C337.112,611.773 336.592,611.404 336.4,611.117C336.032,610.564 335.81,611.023 335.285,613.423C335.049,614.504 334.558,614.896 332.868,615.357C331.702,615.674 328.723,616.583 326.247,617.375C323.148,618.367 320.71,618.816 318.422,618.816L315.098,618.816L313.234,614.441C311.398,610.133 311.366,609.945 311.126,602.066L310.883,594.066L312.566,592.564C313.491,591.738 314.811,590.686 315.498,590.227C316.186,589.768 317.402,588.812 318.201,588.104C319,587.396 319.802,586.816 319.984,586.816C320.166,586.816 320.845,585.86 321.494,584.691C322.143,583.522 322.815,582.454 322.987,582.316C323.16,582.179 323.843,581.166 324.506,580.066C325.169,578.966 326,577.769 326.355,577.405C327.12,576.62 327.134,576.403 326.548,574.516C324.211,567.003 323.951,565.812 324.094,563.294L324.248,560.566L327.706,560.416C330.358,560.302 331.813,560.524 333.956,561.373C335.492,561.982 336.973,562.649 337.248,562.855C337.523,563.062 339.211,563.782 340.998,564.455C342.786,565.128 345.758,566.384 347.603,567.247C349.447,568.11 351.191,568.816 351.478,568.816C351.764,568.816 351.998,569.017 351.998,569.263C351.998,570.428 353.665,570.055 356.807,568.187C358.7,567.062 360.361,565.999 360.498,565.825C360.636,565.651 361.498,565.206 362.415,564.835C364.063,564.168 367.998,560.856 367.998,560.135C367.998,559.93 365.416,557.131 362.259,553.914L356.519,548.066L356.508,544.928C356.496,541.413 356.171,541.914 363.497,534.147C371.75,525.398 370.221,526.42 377.104,525.057C394.336,521.646 393.212,522.038 393.405,519.363C393.505,517.961 393.192,516.32 392.53,514.78C391.26,511.83 391.17,508.215 392.335,507.05C393.079,506.306 394.022,506.252 400.71,506.571C404.856,506.768 408.585,507.11 408.997,507.33C409.711,507.71 411.067,510.945 412.54,515.777C413.245,518.091 414.219,519.238 417.24,521.316C418.239,522.004 419.325,522.806 419.652,523.1C419.979,523.393 420.922,524.068 421.747,524.599C425.082,526.749 425.497,527.348 425.497,530.009C425.497,532.088 424.959,533.602 422.372,538.793C420.654,542.243 419.135,545.179 418.997,545.316C418.86,545.454 418.373,546.376 417.917,547.365L417.086,549.164L420.845,555.865C422.912,559.551 424.861,562.829 425.176,563.149C425.972,563.962 435.974,564.971 443.747,565.023L450.247,565.066L450.395,568.132C450.49,570.113 450.166,572.591 449.479,575.132C447.013,584.257 446.509,586.73 446.503,589.724C446.495,594.523 446.208,594.816 441.536,594.816L437.609,594.816L433.678,598.883C431.516,601.12 428.735,603.993 427.497,605.267C425.844,606.969 424.253,607.967 421.497,609.029C419.435,609.824 416.149,611.216 414.195,612.122L410.642,613.77L409.754,616.918C409.215,618.829 408.902,621.466 408.956,623.627L409.047,627.188L406.897,628.051C405.715,628.525 401.402,630.129 397.312,631.615L389.877,634.316L375.312,634.265C366.729,634.235 360.08,634 359.122,633.693L359.123,633.693Z" style="fill-rule:nonzero;"/>
        </g>
        <g id="pays-de-la-loire" transform="matrix(0.753746,0,0,0.753746,-19.818,29.5251)">
            <path d="M59.248,410.547C51.273,409.634 43.957,408.653 42.99,408.367C41.848,408.029 40.892,407.27 40.265,406.206C39.733,405.304 39.115,404.341 38.891,404.066C38.186,403.2 36.3,400.221 33.511,395.566C32.027,393.091 30.677,390.954 30.51,390.816C30.342,390.679 28.246,387.303 25.852,383.315C21.986,376.876 21.498,375.795 21.498,373.655C21.498,372.329 21.787,370.956 22.14,370.603C22.493,370.25 24.012,368.551 25.515,366.827C27.018,365.103 29.202,362.652 30.368,361.38C31.534,360.107 32.49,358.808 32.493,358.492C32.496,358.176 30.867,357.358 28.873,356.675C26.879,355.991 23.448,354.811 21.248,354.052C19.048,353.294 15.955,352.336 14.373,351.925L11.498,351.178L11.538,346.066L16.644,343.59C19.452,342.228 21.862,340.99 22,340.84C22.137,340.689 24.612,339.359 27.5,337.885C30.387,336.41 34.325,334.398 36.25,333.414C38.175,332.431 39.862,331.5 40,331.346C40.137,331.192 43.4,329.493 47.25,327.57C51.1,325.648 54.362,323.96 54.5,323.82C54.637,323.681 56.55,322.666 58.75,321.566C60.95,320.466 62.862,319.454 63,319.316C63.137,319.179 65.275,318.067 67.75,316.846C70.225,315.625 72.325,314.444 72.416,314.221C72.508,313.998 72.902,313.816 73.291,313.816C74.144,313.816 74.139,314.34 73.485,294.126C73.115,282.684 73.133,278.508 73.554,278.001C74.48,276.885 80.927,277.171 97.5,279.062C108.897,280.363 114.857,280.804 121.092,280.809C129.163,280.816 131.383,281.128 132.699,282.443C133.042,282.786 134.411,283.966 135.742,285.066C137.073,286.166 138.633,287.516 139.208,288.066C139.783,288.616 141.828,290.416 143.752,292.066C145.676,293.716 147.587,295.404 148,295.816C148.412,296.229 150.1,297.686 151.75,299.055C155.526,302.188 155.483,302.121 155.492,304.819C155.501,307.376 155.517,307.315 152.06,317.816C146.912,333.458 146.714,333.981 145.725,334.527C145.189,334.824 144.637,335.185 144.5,335.33C144.362,335.475 143.237,336.031 142,336.566C140.762,337.101 139.637,337.66 139.5,337.808C139.362,337.956 138.012,338.634 136.5,339.316C134.987,339.998 133.637,340.671 133.5,340.811C133.362,340.951 132.184,341.568 130.882,342.181C128.517,343.295 128.506,343.312 123.024,354.267C119.58,361.149 117.202,365.338 116.642,365.506C116.151,365.653 112.262,366.24 108,366.81C103.737,367.38 96.465,368.402 91.838,369.082C87.212,369.761 83.088,370.316 82.672,370.316C81.48,370.316 82.011,390.953 83.418,399.316C83.997,402.754 84.477,407.085 84.485,408.941L84.499,412.316L79.124,412.261C76.168,412.231 67.224,411.459 59.249,410.547L59.248,410.547Z" style="fill-rule:nonzero;"/>
        </g>
    </g>
</svg>
